<svg width="100" height="100" viewBox="0 0 100 100" fill="none" xmlns="http://www.w3.org/2000/svg">
<path d="M60 7.8125C60 11.0917 57.3417 13.75 54.0625 13.75C50.7833 13.75 48.125 11.0917 48.125 7.8125C48.125 4.53331 50.7833 1.875 54.0625 1.875C57.3417 1.875 60 4.53331 60 7.8125Z" fill="#1BA88D"/>
<path d="M93.75 28.75C93.75 33.5825 89.8325 37.5 85 37.5C80.1675 37.5 76.25 33.5825 76.25 28.75C76.25 23.9175 80.1675 20 85 20C89.8325 20 93.75 23.9175 93.75 28.75Z" fill="#1BA88D"/>
<path fill-rule="evenodd" clip-rule="evenodd" d="M85.6096 28.7613C86.6369 30.1482 86.3455 32.1052 84.9586 33.1325L73.1058 41.9124C71.719 42.9397 69.7619 42.6482 68.7346 41.2613C67.7073 39.8745 67.9988 37.9174 69.3857 36.8901L81.2384 28.1103C82.6253 27.083 84.5823 27.3745 85.6096 28.7613Z" fill="#1BA88D"/>
<path d="M16.25 61.25C16.25 64.7018 13.4518 67.5 10 67.5C6.54822 67.5 3.75 64.7018 3.75 61.25C3.75 57.7982 6.54822 55 10 55C13.4518 55 16.25 57.7982 16.25 61.25Z" fill="#1BA88D"/>
<path d="M96.875 55.625C96.875 58.7316 94.3566 61.25 91.25 61.25C88.1434 61.25 85.625 58.7316 85.625 55.625C85.625 52.5184 88.1434 50 91.25 50C94.3566 50 96.875 52.5184 96.875 55.625Z" fill="#1BA88D"/>
<path fill-rule="evenodd" clip-rule="evenodd" d="M54.0568 8.91165C55.2616 9.00089 56.1659 10.0499 56.0767 11.2548L55.1499 23.7667C55.0606 24.9715 54.0116 25.8759 52.8068 25.7866C51.6019 25.6974 50.6976 24.6484 50.7868 23.4435L51.7136 10.9316C51.8029 9.72675 52.8519 8.8224 54.0568 8.91165Z" fill="#1BA88D"/>
<path fill-rule="evenodd" clip-rule="evenodd" d="M35.5178 55.2503C35.8041 56.424 35.0846 57.6076 33.9109 57.8938L12.5363 63.1071C11.3626 63.3934 10.1791 62.674 9.89279 61.5003C9.60652 60.3266 10.3259 59.143 11.4996 58.8567L32.8742 53.6434C34.048 53.3572 35.2315 54.0766 35.5178 55.2503Z" fill="#1BA88D"/>
<path fill-rule="evenodd" clip-rule="evenodd" d="M90.7914 55.8889C90.5382 57.0702 89.3754 57.8226 88.1941 57.5695L74.9719 54.7362C73.7906 54.483 73.0382 53.3202 73.2914 52.1389C73.5445 50.9576 74.7073 50.2052 75.8886 50.4583L89.1108 53.2916C90.2921 53.5447 91.0445 54.7076 90.7914 55.8889Z" fill="#1BA88D"/>
<path d="M85 51C85 69.7777 70.0015 85 51.5 85C32.9985 85 18 69.7777 18 51C18 32.2223 32.9985 17 51.5 17C70.0015 17 85 32.2223 85 51Z" fill="#44C4AB"/>
<path fill-rule="evenodd" clip-rule="evenodd" d="M19.7848 19.7426C21.0465 18.565 23.024 18.6332 24.2016 19.8949L37.4371 34.0758C38.6147 35.3375 38.5465 37.315 37.2848 38.4926C36.0231 39.6702 34.0456 39.602 32.868 38.3403L19.6325 24.1594C18.4549 22.8977 18.5231 20.9202 19.7848 19.7426Z" fill="#1BA88D"/>
<path fill-rule="evenodd" clip-rule="evenodd" d="M25.5626 90.5849C24.1473 89.5971 23.8008 87.6491 24.7885 86.2338L35.5181 70.8606C36.5059 69.4453 38.4539 69.0988 39.8692 70.0866C41.2845 71.0743 41.631 73.0224 40.6433 74.4377L29.9137 89.8109C28.9259 91.2261 26.9778 91.5727 25.5626 90.5849Z" fill="#1BA88D"/>
<path fill-rule="evenodd" clip-rule="evenodd" d="M77.5687 83.8382C76.2261 84.9226 74.2586 84.7133 73.1741 83.3707L63.976 71.9827C62.8916 70.6401 63.1009 68.6725 64.4435 67.5881C65.7861 66.5036 67.7537 66.7129 68.8381 68.0556L78.0362 79.4436C79.1207 80.7862 78.9114 82.7537 77.5687 83.8382Z" fill="#1BA88D"/>
<path d="M28.125 20C28.125 24.4873 24.4873 28.125 20 28.125C15.5127 28.125 11.875 24.4873 11.875 20C11.875 15.5127 15.5127 11.875 20 11.875C24.4873 11.875 28.125 15.5127 28.125 20Z" fill="#1BA88D"/>
<path d="M33.75 90C33.75 94.4873 30.1123 98.125 25.625 98.125C21.1377 98.125 17.5 94.4873 17.5 90C17.5 85.5127 21.1377 81.875 25.625 81.875C30.1123 81.875 33.75 85.5127 33.75 90Z" fill="#1BA88D"/>
<path d="M85 84.375C85 88.8623 81.3623 92.5 76.875 92.5C72.3877 92.5 68.75 88.8623 68.75 84.375C68.75 79.8877 72.3877 76.25 76.875 76.25C81.3623 76.25 85 79.8877 85 84.375Z" fill="#1BA88D"/>
<path d="M75 46.25C75 50.3921 71.6421 53.75 67.5 53.75C63.3579 53.75 60 50.3921 60 46.25C60 42.1079 63.3579 38.75 67.5 38.75C71.6421 38.75 75 42.1079 75 46.25Z" fill="#1BA88D"/>
<path d="M45.625 53.125C45.625 57.2671 42.2671 60.625 38.125 60.625C33.9829 60.625 30.625 57.2671 30.625 53.125C30.625 48.9829 33.9829 45.625 38.125 45.625C42.2671 45.625 45.625 48.9829 45.625 53.125Z" fill="#1BA88D"/>
<path d="M59.375 67.5C59.375 70.2614 57.1364 72.5 54.375 72.5C51.6136 72.5 49.375 70.2614 49.375 67.5C49.375 64.7386 51.6136 62.5 54.375 62.5C57.1364 62.5 59.375 64.7386 59.375 67.5Z" fill="white"/>
<path d="M54.375 37.5C54.375 39.5711 52.6961 41.25 50.625 41.25C48.5539 41.25 46.875 39.5711 46.875 37.5C46.875 35.4289 48.5539 33.75 50.625 33.75C52.6961 33.75 54.375 35.4289 54.375 37.5Z" fill="white"/>
</svg>
